<svg width="31" height="10" viewBox="0 0 31 10" xmlns="http://www.w3.org/2000/svg"><title>HGON</title><path d="M30.316 1.06h-1.427c-.048.33-.163.673-.254.98-.15.496-.228 1-.372 1.477-.125.415-.139.898-.332 1.256-.214-.04-.478-.708-.587-.905-.327-.592-.59-1.224-.919-1.829-.193-.355-.449-.712-.625-1.071h-1.858c-.137.086-.162.525-.215.72-.053.197-.142.386-.195.555-.093.29-.072.565-.157.85-.273.92-.409 1.952-.723 2.863l-.059.406c-.107.38-.181.81-.293 1.182-.11.367-.138.747-.235 1.109-.047.177-.002.434-.097.573v.018l2.15.037.9-3.972c.02-.017.001.002.02-.018.155.018.155.151.214.258.12.218.227.458.352.684.352.637.684 1.29.997 1.958.173.37.42.73.587 1.108.243.054.642.037.977.037.121 0 .347-.03.43.019h.47L31 1.079c-.173-.055-.474-.019-.684-.019m-10.33 4.024c-.191.756-.402 1.624-.982 2.011-.113.075-.617.375-.828.317-.203-.057-.476-.227-.578-.391-.15-.245-.19-1.06-.096-1.416.121-.456.27-.836.501-1.173.04-.058.047-.14.096-.187.081-.075.182-.116.25-.204.076-.097.142-.216.232-.298.14-.063.282-.125.423-.187.2-.002.475-.03.616.038.344.165.496.977.366 1.49m2.537-1.711c-.066-.287-.054-.519-.15-.769-.098-.249-.257-.467-.396-.67-.439-.643-.993-.977-2.068-.966-.073.048-.185.015-.283.04-.194.05-.41.085-.601.157a5.05 5.05 0 0 0-1.373.789c-.362.283-.62.735-.865 1.143-.382.633-.733 1.321-.978 2.11-.096.306-.11.591-.188.926-.106.45-.153 1.17-.038 1.655.066.275.139.544.245.789.292.677.964 1.08 1.674 1.32.81.276 1.816-.057 2.313-.374 1.083-.69 1.855-1.633 2.37-2.917.155-.39.232-.827.338-1.262.125-.516.115-1.464 0-1.971M9.065 1.005L7.75.986c-.149 0-.456.045-.561-.018h-.27c-.134.09-.158.611-.213.819-.097.366-.187.772-.29 1.154-.101.378-.11.768-.251 1.098-.23.043-.73.03-.967-.019-.175-.035-.409.013-.56-.018-.164-.034-.435.056-.56-.019H4.04L4.697.968H2.61c-.146.065-.126.393-.174.558-.143.49-.204 1.016-.348 1.526-.407 1.447-.6 2.99-1.024 4.43-.118.4-.158.811-.27 1.192-.05.17-.028.384-.117.521.115.084.351.002.522.037.287.06.661-.003.947.056.14.03.357-.043.464.019.298-.007.297-.577.367-.82.167-.57.25-1.193.425-1.749.063-.199.045-.453.155-.614v-.037l1.488.018c.153 0 .45.078.58 0h.019c-.057.413-.147.857-.251 1.247-.098.366-.117.739-.213 1.08-.066.238-.065.704-.193.875.107.078.424.037.599.037h1.546a1.71 1.71 0 0 0 .155-.372l.038-.335c.22-.71.288-1.48.503-2.215.245-.84.372-1.77.618-2.606l.097-.577c.141-.483.2-1.005.348-1.508.064-.217.162-.48.174-.726m6.144.545a3.253 3.253 0 0 0-.9-.462c-.976-.321-2.148.07-2.817.366-1.598.705-2.365 2.314-2.874 4.12-.133.468-.099.98-.192 1.501-.048.271.176.935.25 1.136.404 1.103.913 1.355 2.088 1.675.316.086.869.162 1.264.077.249-.054.466 0 .69-.058.394-.102.802-.223 1.112-.404.008-.159.06-.294.096-.424.09-.32.126-.642.21-.943.209-.74.269-1.494.48-2.233.078-.277.196-.616.21-.924-.26 0-.616.014-.862-.039-.198-.042-.458.018-.633-.02-.182-.038-.49.07-.632-.018-.067-.002-.153-.007-.192.019-.089.114-.07.324-.114.481-.08.286-.15.62-.23.905-.04.143-.023.312-.096.424.038.064.516.124.575.115.067.269-.036.585-.154.79-1.35.283-1.955-1.023-1.61-2.292.255-.931.75-1.76 1.61-2.079.422-.156 1.175-.202 1.61-.019.194.082.343.23.498.347.121.09.337.207.403.346.11-.067.095-.36.134-.5.143-.513.222-1.078.383-1.598-.115-.078-.195-.207-.307-.289" fill="#171207"/></svg>